<svg width="58" height="58" viewBox="0 0 58 58" fill="none" xmlns="http://www.w3.org/2000/svg">
<path d="M30.299 3.25L51.9497 40.75C52.527 41.75 51.8053 43 50.6506 43H7.34936C6.19466 43 5.47298 41.75 6.05033 40.75L27.701 3.25C28.2783 2.25 29.7217 2.25 30.299 3.25Z" stroke="white"/>
<path d="M31.1577 13.1172L30.9355 30.9761H28.0815L27.8423 13.1172H31.1577ZM27.7397 36.4106C27.7397 35.8979 27.8936 35.465 28.2012 35.1118C28.5202 34.7586 28.9873 34.582 29.6025 34.582C30.2064 34.582 30.6678 34.7586 30.9868 35.1118C31.3172 35.465 31.4824 35.8979 31.4824 36.4106C31.4824 36.9006 31.3172 37.3221 30.9868 37.6753C30.6678 38.0285 30.2064 38.2051 29.6025 38.2051C28.9873 38.2051 28.5202 38.0285 28.2012 37.6753C27.8936 37.3221 27.7397 36.9006 27.7397 36.4106Z" fill="white"/>
</svg>
